<?xml version="1.0" encoding="UTF-8"?>
<svg id="_レイヤー_2" data-name="レイヤー_2" xmlns="http://www.w3.org/2000/svg" viewBox="0 0 600 344.17">
  <defs>
    <style>
      .cls-1 {
        fill: #ccc;
      }

      .cls-2 {
        fill: #fff;
      }
    </style>
  </defs>
  <g id="_レイヤー_2-2" data-name="レイヤー_2">
    <g>
      <g>
        <path class="cls-1" d="M41.27,311.03c0,2.59-.52,5.02-1.55,7.29-1.03,2.27-2.52,4.24-4.46,5.92s-4.3,3-7.07,3.98c-2.77.97-5.92,1.46-9.46,1.46-3.24,0-6.48-.35-9.72-1.06-3.24-.71-6.25-1.74-9.01-3.09l2.92-11.05c2.06,1,4.39,1.87,6.98,2.61,2.59.74,5.39,1.1,8.39,1.1,2.47,0,4.51-.46,6.1-1.37,1.59-.91,2.39-2.4,2.39-4.46,0-1.47-.69-2.81-2.08-4.02-1.38-1.21-3.9-2.49-7.55-3.84-5.77-2.18-9.99-4.67-12.64-7.47-2.65-2.8-3.98-6.38-3.98-10.74,0-5.71,1.87-10.07,5.61-13.08,3.74-3,8.91-4.51,15.51-4.51,3.36,0,6.57.37,9.63,1.1,3.06.74,5.66,1.69,7.78,2.87l-2.47,10.87c-2.06-1-4.32-1.81-6.76-2.43-2.45-.62-4.96-.93-7.56-.93-2.18,0-3.93.37-5.26,1.1-1.33.74-1.99,1.99-1.99,3.76,0,.83.12,1.53.35,2.12.23.59.66,1.15,1.28,1.68s1.49,1.06,2.61,1.59c1.12.53,2.53,1.15,4.24,1.86,2.47,1,4.8,2.06,6.98,3.18,2.18,1.12,4.06,2.42,5.65,3.89,1.59,1.47,2.84,3.15,3.76,5.04.91,1.89,1.37,4.1,1.37,6.63Z"/>
        <path class="cls-1" d="M85.54,328.62v-23.95h-21.56v23.95h-14.49v-58.85h14.49v23.06h21.56v-23.06h14.49v58.85h-14.49Z"/>
        <path class="cls-1" d="M126.45,328.62h-14.49v-58.85h14.49v58.85Z"/>
        <path class="cls-1" d="M174.43,328.62v-23.95h-21.56v23.95h-14.49v-58.85h14.49v23.06h21.56v-23.06h14.49v58.85h-14.49Z"/>
        <path class="cls-1" d="M257.76,299.19c0,4.18-.68,8.12-2.03,11.8-1.36,3.68-3.31,6.91-5.88,9.68-2.56,2.77-5.7,4.96-9.41,6.58-3.71,1.62-7.95,2.43-12.72,2.43s-9.03-.81-12.77-2.43c-3.74-1.62-6.89-3.81-9.46-6.58-2.56-2.77-4.51-5.99-5.83-9.68-1.33-3.68-1.99-7.61-1.99-11.8s.66-8.11,1.99-11.8c1.33-3.68,3.27-6.91,5.83-9.68,2.56-2.77,5.71-4.96,9.46-6.58,3.74-1.62,8-2.43,12.77-2.43s9.01.81,12.72,2.43c3.71,1.62,6.85,3.81,9.41,6.58,2.56,2.77,4.52,6,5.88,9.68,1.35,3.68,2.03,7.61,2.03,11.8ZM227.72,318.19c2.53,0,4.77-.47,6.72-1.41,1.94-.94,3.58-2.25,4.9-3.93,1.32-1.68,2.31-3.68,2.96-6.01.65-2.33.97-4.87.97-7.64s-.32-5.32-.97-7.64c-.65-2.33-1.63-4.33-2.96-6.01-1.33-1.68-2.96-2.99-4.9-3.93-1.94-.94-4.18-1.41-6.72-1.41s-4.85.47-6.76,1.41c-1.92.94-3.53,2.25-4.86,3.93-1.33,1.68-2.31,3.68-2.96,6.01-.65,2.33-.97,4.88-.97,7.64s.32,5.32.97,7.64c.65,2.33,1.63,4.33,2.96,6.01s2.94,2.99,4.86,3.93c1.91.94,4.17,1.41,6.76,1.41Z"/>
        <path class="cls-1" d="M323.77,328.62l-24.3-35.08v35.08h-13.96v-58.85h13.96l24.3,35.08v-35.08h13.96v58.85h-13.96Z"/>
        <path class="cls-1" d="M406.57,299.19c0,4.18-.68,8.12-2.03,11.8-1.36,3.68-3.31,6.91-5.88,9.68-2.56,2.77-5.7,4.96-9.41,6.58-3.71,1.62-7.95,2.43-12.72,2.43s-9.03-.81-12.77-2.43c-3.74-1.62-6.89-3.81-9.46-6.58-2.56-2.77-4.51-5.99-5.83-9.68-1.33-3.68-1.99-7.61-1.99-11.8s.66-8.11,1.99-11.8c1.33-3.68,3.27-6.91,5.83-9.68,2.56-2.77,5.71-4.96,9.46-6.58,3.74-1.62,8-2.43,12.77-2.43s9.01.81,12.72,2.43c3.71,1.62,6.85,3.81,9.41,6.58,2.56,2.77,4.52,6,5.88,9.68,1.35,3.68,2.03,7.61,2.03,11.8ZM376.52,318.19c2.53,0,4.77-.47,6.72-1.41,1.94-.94,3.58-2.25,4.9-3.93,1.32-1.68,2.31-3.68,2.96-6.01.65-2.33.97-4.87.97-7.64s-.32-5.32-.97-7.64c-.65-2.33-1.63-4.33-2.96-6.01-1.33-1.68-2.96-2.99-4.9-3.93-1.94-.94-4.18-1.41-6.72-1.41s-4.85.47-6.76,1.41c-1.92.94-3.53,2.25-4.86,3.93-1.33,1.68-2.31,3.68-2.96,6.01-.65,2.33-.97,4.88-.97,7.64s.32,5.32.97,7.64c.65,2.33,1.63,4.33,2.96,6.01s2.94,2.99,4.86,3.93c1.91.94,4.17,1.41,6.76,1.41Z"/>
        <path class="cls-1" d="M429.72,322.3c-.35,2.5-.99,4.98-1.9,7.42-.91,2.44-2.17,4.86-3.76,7.25-1.59,2.39-3.62,4.79-6.1,7.2l-9.99-7.86c2.47-2.95,4.39-5.95,5.74-9.01,1.35-3.06,2.03-6.51,2.03-10.34v-47.19h14.49v44.8c0,2.65-.18,5.23-.53,7.73Z"/>
        <path class="cls-1" d="M456.67,328.62h-14.49v-58.85h14.49v58.85Z"/>
        <path class="cls-1" d="M508.01,319.25h-13.96l-11.49-23.59-1.77,32.96h-14.23l4.42-58.85h13.08l16.97,35.97,16.97-35.97h13.08l4.42,58.85h-14.23l-1.77-32.96-11.49,23.59Z"/>
        <path class="cls-1" d="M581.35,317.22h-22.53l-3.62,11.4h-14.93l21.91-58.85h15.91l21.92,58.85h-14.93l-3.71-11.4ZM562.53,305.73h15.11l-7.51-24.83-7.6,24.83Z"/>
      </g>
      <g>
        <rect class="cls-2" x="300.06" y=".5" width="250.25" height="250.25"/>
        <circle class="cls-1" cx="425.19" cy="125.63" r="125.13"/>
        <rect class="cls-1" x="50.31" width="250.25" height="250.25"/>
        <circle class="cls-2" cx="175.44" cy="125.13" r="125.13"/>
      </g>
    </g>
  </g>
</svg>