<?xml version="1.0" encoding="UTF-8"?>
<svg id="_レイヤー_2" data-name="レイヤー_2" xmlns="http://www.w3.org/2000/svg" viewBox="0 0 391.69 538">
  <defs>
    <style>
      .cls-1 {
        fill: #fff;
      }
    </style>
  </defs>
  <g id="_レイヤー_1-2" data-name="レイヤー_1">
    <g>
      <path class="cls-1" d="M391.62,269c0,88.61-.02,177.22.07,265.84,0,2.65-.52,3.17-3.16,3.16-128.46-.08-256.91-.08-385.37,0-2.64,0-3.16-.52-3.16-3.16C.08,357.61,0,3.16,0,3.16,0,3.16.52,0,3.16,0c128.46.08,256.91.08,385.37,0,2.64,0,3.17.52,3.16,3.16-.09,88.61-.07,177.22-.07,265.84ZM102.61,304.98c-.06-.39-.12-.78-.18-1.17-8.56,1.58-16.24,2.74-24.31,6.26-4.48,1.96-19.95,6.45-19.03,12.85,2,13.93,23.71-4.9,28.46-6.32,17.24-5.16,36.94-1.65,54.74-4.16,8.17-1.15,16.21-2.78,24.26-4.57,2.66-.59,11.88-4.3,14.29-2.82,2.33,1.43,2.11,7.8,2.47,10.05,2.61,16.17,8.5,33.88,6.31,50.41-.19,1.46-1.8,6.1-1.59,7.77.27,2.16,2.76.47,3.35,2.21,1.09,3.19,1.43,16.92-1.17,19.63-2.98,3.1-13.3,1.78-17.43,2.04-9.38.58-18.79,1.34-28.19,1.63-17.33.53-32.97-4.31-49.94-5.82-15.86-1.41-31.7-2.39-46.88-7.67-6.28-2.19-13.61-3.78-19.56-6.7-5.76-2.82-7.01-4.6-14.03-3.95-16.13,1.48-1.08,14.17,6.61,15.25,12.83,1.8,24.89,8.2,37.91,11.23,16.11,3.74,33.09,3.49,49.46,6.36,13.78,2.41,26.29,3.86,40.26,3.18,8.93-.44,17.86.51,26.81-.12,4.69-.33,14.19-4.06,17.08.93,2.12,3.66-1.32,14.74-1.99,18.73-1.32,7.87-3.79,15.15-6.14,22.73-1.48,4.77-1.44,18.27-5.37,21.22-2.81,2.11-10.38-1.03-13.57-1.81-14.86-3.63-30.15-2.11-45.19-.07-14,1.9-24.75,4.45-29.97,18.94-2.43,6.75-3.71,14.26-4.8,21.33-1.21,7.87-.25,7.99,4.92,13.04,5.72,5.58,9.24,5.39,17.23,5.39,6.81,0,14.9,1.43,20.9-1.9,6.2-3.44,10.54-5.22,17.87-6.95,7.27-1.72,15.46-2.92,22.14-6.42,5.07-2.65,8.95-6.78,11.78-11.71,1.81-3.15,3.11-12.72,5.74-14.62,3.05-2.2,8.96,1.17,12.07,2.12,5.9,1.82,11.97,1.59,17.98,3.13,15.42,3.94,29.75,11.92,44.01,18.77,6.8,3.27,15.83,5.99,21.82,10.55,3.93,2.99,5.38,5.65,10.25,7.04,4.84,1.39,8.69,1.75,11.24-2.63,4.12-7.06-3.01-8.94-8.17-11.73-11.36-6.14-22.68-10.51-34.58-15.44-15.71-6.5-30.74-15.32-47.54-18.55-4.8-.92-16.75-.78-20.84-3.81-4.24-3.14-.86-8.63,0-13.73,1.53-8.96,3.73-17.76,5.73-26.63,1.9-8.43,1.99-16.48,3.21-24.86,1.74-11.84,16.1-6.76,25.29-8.29,30.42-5.05,58.15-18.84,87.42-27.42,14.49-4.25,28.74-9.79,42.78-15.37,3.75-1.49,9.88-2.57,13-5.07,1.84-1.48,1.83-3.6,3.43-5.22,2.16-2.18,5.68-3.74,8.19-5.51,3.47-2.45,10.73-6.74,7.81-11.99-3.33-5.99-11.23-.06-14.92,2.3-11.37,7.26-21.78,13.98-34.35,18.92-13.46,5.29-27.11,9.92-40.43,15.49-6.95,2.91-14.14,5.26-21.53,6.75-5.02,1.01-13.09-.09-17.55,2.01-.36.97.14,1.64,1.48,2.02-3.03,3.6-14.29,4-18.74,4.43-2.95.28-5.49.54-8.03,1.21-1.46.39,1.82,2.45.55,2.63-1.81.26-3.89-1.2-5.7-1.27-3.82-.15-6.79,1.51-10.35,2.38-4.61,1.14-13.02,3.55-17.2,1.39,1.58-1.62,3.27-2.08,5.33-3.16-8.22-2.43-5.38-10.66-5.25-18.12.12-6.71.69-12.81-1.43-19.2-2.64-7.98-4.13-15.99-5.83-24.29-1.54-7.51-4.26-15.48-3.14-23.1,2.05,1.08,3.88,1.89,5.53,3.51-.36-5.59-2.56-4.63,3.36-6.52,5.11-1.63,11.2-1.58,16.53-2.41,12.01-1.88,24.21-4.86,36.38-2.31,4.36.91,10.21,5.31,14.44,4.3,4.06-.97,5.85-4.55,3.84-8.17-4.48-8.12-22.92-7.1-30.28-7.27-12.84-.31-24.67,3.63-37.26,5.26-5.36.69-10.84-1.76-15.84-.23-4.03,1.23-7.21,4.06-11.55,4.95-24.38,5.03-49.7,6.18-74.43,8.74ZM157.58.59c-14.67.51-28.03,5.83-41.62,10.86-4.35,1.61-7.98,4.34-12.26,6.03-3,1.18-6.39.94-9.28,2.01-5.31,1.96-9.57,6.85-14.61,9.51-5.62,2.97-9.19,7.25-13.8,11.31-.92.81-6.37,6.78-7.25,8.85-6.38,14.89-13.39,29.06-21.41,43.17-3.95,6.95-8.85,13.52-12.48,20.63-4.18,8.19-5.67,17.68-7.88,26.56-3.72,14.87-4.05,30.31-7.06,45.46-3.05,15.33-7.16,32.32-7.45,47.99-.28,15.07,8.96,31.85,12.98,46.29,1.98,7.11,10.48,29.69,20.82,26.31,9.86-3.22,13.46-23.91,16.12-32.18,4.64-14.44,7.37-29.47,10.42-44.3,1.99-9.66,4.84-19.26,5.93-28.27,3.39-28.11,6.26-56.27,8.7-84.67,1.23-14.28.75-28.98.33-43.31-.37-12.6-4.86-25.64,7.13-33.94,11.04-7.65,25.8-13.02,38.47-17.2,12.39-4.09,22.09-9.62,35.63-9.14,15.13.54,30.12,3.19,45.13,4.96,13.02,1.54,25.9,1.89,38.6,5.54,13.61,3.91,25.39,10.65,36.91,18.72,11.14,7.81,23.19,14.21,34.31,22.02,23.42,16.45,29.1,41.19,31.86,68.17,1.59,15.48.88,32.54-3.29,47.67-1.58,5.72-5.36,7.59-6.66,12.53-1.58,6.01-2.02,11.17-4.38,17.35-5.75,15.09-12.12,24.5-23.08,36.28-9.11,9.79-18.49,21.57-29.63,29.16-3.98,2.71-16.02,5.89-7.68,9.55,5.41,2.37,10.6-1.7,14.77-4.51,6.34-4.27,12.67-8.83,18.59-13.68,4.28-3.5,5.89-7.2,9.01-11.57,6.84-9.58,17.52-14.88,21.71-26.31,2.28-6.23,4.29-12.47,7.02-18.56,1.75-3.9,2.95-9.97,5.46-13.39,1.61-2.2,3.21-1.89,3.96-4.17-.03.08-.79-4.87-.58-6,1.24-6.68,4.86-11.84,5.29-19.14.79-13.54,1.97-27.73.38-41.21-3.26-27.53-13.06-55.07-36.25-71.66-12.21-8.73-25.97-15.06-37.88-24.27-4.24-3.28-7.91-7.29-12.74-9.69-6.75-3.35-15.14-4.99-22.43-6.78-29.05-7.13-60.26-8.08-89.83-12.98ZM223.47,182.36c-.19-3.78-2.11-23.94-10.66-15.4-3.68,3.68.73,13.66-.09,18.36-3.22,18.41-12.55,31.04-26.29,44.03-8.16,7.72-26.01,24.6-31.19,5.26-2.31-8.61-1.7-17.71-.37-26.38,1.01-6.57.23-12.95,1.51-19.39,1.49-7.51,4.99-15.57,4.92-23.23-.03-3.81-1.23-7.01-.81-10.93.3-2.85,2.66-7.68,1.02-10.27-1.89-2.98-8.48-2.72-11.26-1.02-3.76,2.31-2.15,2.83-1.61,6.52,1.18,8.17,1.66,15.79-.19,24.11-1.86,8.33-1.93,16.18-2.29,24.7-.36,8.37-3.11,16.22-2.51,24.67.91,12.88,5.68,32.42,22.13,30.71,15.16-1.58,28.59-16.88,38.06-27.46,11.7-13.08,18.3-26.48,19.64-44.28ZM231.04,58.24c.4,0,.79-.02,1.19-.03-2.13-7.92-9.81-3.29-11.83,2.27-3.6,9.88-.54,21.53,1,31.53.36,2.35.41,10.33,5.07,7.9,2.98-1.55,1.75-7.18,1.77-10,.09-10.62,1.62-21.13,2.79-31.67ZM129.61,85.73c-1.78-3.71-7.4-15.99-11.73-6.61-2.29,4.96,2.74,14.63,4.49,19.5,1.05,2.91,6.93,13.85,11.04,5.71,1.63-3.23-4.43-18.35-3.8-18.6Z"/>
      <path d="M177.04,296.24c11.11-5.61,87.89-18.18,94.92-2.71,7.53,16.54-51.88.3-71.24,12.39-14.14,8.83-3.07,67.89,4.32,88.5,4.87,13.59,90.01-21.16,134.65-38.46,17.05-2.57,36.16-45.04,49.28-21.23s-109.9,64.72-162.62,70.62c-33.46,3.74-24.54,36.6-34.25,59.77-8.41,16.84,9.44,16.49,20.84,17.54,21.25,9.51,87.01,25.1,90.3,45.71-5.42,8.24-16.25.77-21.5-4.4-29.81-15.38-62.5-32.4-95.88-34.58-5.59,39.63-127.54,69.76-95.77,1.84,15.23-31.66,61.51-18.55,88.73-17.06,5.56-18.46,12.92-57.64,7.81-62.07-7.25-6.27-213.49-11.07-172.45-37.45,50.36,16.19,100.28,22.68,154.29,24.61,17.54.63,27.15-9.04,22.92-23.76-2.66-23.01-1.07-61.01-24.17-63.3-23.12-2.3-49.15-.29-79.66,4.42-4.75,1.43-26.46,20.25-28.46,6.32,30.1-30.48,62.89-13.63,117.94-26.7ZM117.96,483.02c-15.88-3.32-27.2,17.81-18.35,30.49,17.02,14.77,48.49-3.81,66.99-9.39,30.5-28.71-31.72-24.3-48.63-21.1Z"/>
      <path d="M153.16,1.02c96.67-2.17,225.25,48.79,203.17,166.17-11.12,45.56-36.19,105.27-85.23,117.33-8.34-3.66,3.7-6.84,7.68-9.55,21.54-18.09,42.35-38.85,52.71-65.44C409.5,62.04,196.53-36.01,84.9,38.91c-18.32,19.37-1.09,52.58-7.47,77.24-8.75,61.94-5.77,137.08-41.14,189.42-51.2-33.59-27.38-114.21-19.3-166.05C34.24,80.58,71.84,7.62,153.16,1.02ZM68.34,107.28C77.08-28.79-6.33,232.09,21.68,258.63c26.55,97.91,44.33-125.98,46.67-151.35Z"/>
      <path d="M223.47,182.36c-1.34,17.8-7.93,31.2-19.64,44.28-9.47,10.58-22.91,25.89-38.06,27.46-16.45,1.71-21.22-17.83-22.13-30.71-.6-8.46,2.15-16.3,2.51-24.67.36-8.53.43-16.38,2.29-24.7,1.86-8.31,1.38-15.93.19-24.11-.53-3.69-2.15-4.21,1.61-6.52,2.78-1.71,9.37-1.96,11.26,1.02,1.64,2.59-.72,7.42-1.02,10.27-.42,3.92.78,7.12.81,10.93.07,7.66-3.43,15.72-4.92,23.23-1.28,6.43-.5,12.82-1.51,19.39-1.33,8.66-1.94,17.76.37,26.38,5.18,19.34,23.03,2.46,31.19-5.26,13.74-12.99,23.07-25.62,26.29-44.03.82-4.69-3.59-14.68.09-18.36,8.55-8.54,10.46,11.62,10.66,15.4Z"/>
      <path d="M228.26,89.91c0,3.79,1.21,8.45-1.77,10-4.67,2.42-5.89-5.47-6.26-7.83-1.54-10-3.09-21.61.18-31.6,1.61-4.91,9.7-10.19,11.83-2.27.66,3.92-3.96,14.97-3.98,31.69Z"/>
      <path d="M133.42,104.33c-4.11,8.14-10-2.8-11.04-5.71-1.75-4.87-6.78-14.54-4.49-19.5,4.33-9.38,9.95,2.9,11.73,6.61,1.2,4.61,5.43,15.37,3.8,18.6Z"/>
      <path class="cls-1" d="M117.96,483.02c9.89-1.52,17.84-3.31,27.95-1.97,4.71.62,27.52,1.2,29.72,5.73,2.18,4.48-4.94,16.11-9.03,17.33-13.01,3.89-11.58,1-22.05,7.03s-35.13,15.41-44.94,2.36c-4.65-6.19-3.4-11.57-.98-18.92,3.4-10.34,9.41-11.15,19.29-11.86.01.1.03.2.04.3Z"/>
    </g>
  </g>
</svg>