<?xml version="1.0" encoding="UTF-8"?>
<svg id="_レイヤー_2" data-name="レイヤー_2" xmlns="http://www.w3.org/2000/svg" viewBox="0 0 346.19 453.09">
  <defs>
    <style>
      .cls-1 {
        fill: none;
        stroke: #000;
        stroke-linecap: round;
        stroke-linejoin: round;
        stroke-width: 15px;
      }
    </style>
  </defs>
  <path class="cls-1" d="M113.95,142.17c-16.03,19.42-6.8,24.98,3.23,45.4,14.59,29.71,96.29,35.97,124.49,18.76,19.29-11.77,20.27-20.35,23.14-45.24"/>
  <path class="cls-1" d="M148.4,100.73l-1.6,5.22"/>
  <path class="cls-1" d="M216.36,102.85s1.02,4.12,1.54,6.19"/>
  <path class="cls-1" d="M87.34,283.42c60.26,13.71,131.21,3.62,154.95-12.41"/>
  <path class="cls-1" d="M8.06,284.99s81.13,47.14,173.87,33.75c55.31-7.98,143.68-48.22,150.76-64.83"/>
  <path class="cls-1" d="M152.35,253.92s40.84,109.45,34.09,134.2c-6.21,22.78-39.13,44.28-59.46,51.35s-114.92,16.17-118.92-24.88c-6.31-64.8,41.69-74.39,81.05-78.38,36.08-3.65,128.78,23.08,181.11,49.21,24.54,12.25,68.47,18.02,68.47,18.02"/>
  <path class="cls-1" d="M283.74,37.66S116.69,71.46,98.16,117.22c-24.04,59.37-2.71,136.7-2.71,136.7H21.29c3.68-.43-21.17-55.86-8.73-111.75C28,72.87,56.94,50.21,94.55,29.56c18.52-10.17,134.74-48.32,189.19,8.11,46.94,48.65,54.79,95.16,45.57,138.74-9.29,43.89-56.38,77.53-69,77.52"/>
</svg>