<?xml version="1.0" encoding="UTF-8"?>
<svg id="_レイヤー_2" data-name="レイヤー_2" xmlns="http://www.w3.org/2000/svg" viewBox="0 0 514 514">
  <g id="_レイヤー_1-2" data-name="レイヤー_1">
    <path d="M514,257c0-68.65-26.73-133.19-75.27-181.73-9.2-9.2-18.97-17.6-29.23-25.2v-.57h-.79C364.95,17.37,312.31,0,257,0s-107.95,17.37-151.71,49.5h-.79v.57c-10.26,7.6-20.03,16.01-29.23,25.2C26.73,123.81,0,188.35,0,257s26.73,133.19,75.27,181.73c9.2,9.2,18.97,17.6,29.23,25.2v.57h.79c43.76,32.13,96.39,49.5,151.71,49.5s107.95-17.37,151.71-49.5h.79v-.57c10.26-7.6,20.03-16.01,29.23-25.2,48.54-48.54,75.27-113.08,75.27-181.73ZM376.56,58.08v301.68c0,17.13.43,34.04,1.32,50.72h-1.32c-9.22-14.92-18.67-29.64-28.33-44.13-9.66-14.49-19.54-29.21-29.64-44.14L141.54,55.67c34.75-20,74.28-30.67,115.46-30.67s83.83,11.52,119.56,33.08ZM92.95,421.05c-43.82-43.82-67.95-102.08-67.95-164.05s24.13-120.23,67.95-164.05c3.74-3.74,7.6-7.33,11.55-10.79v349.68c-3.95-3.45-7.81-7.04-11.55-10.79ZM137.44,455.92v-239.1c0-40.84-.66-81.68-1.97-122.52h1.32c9.65,18.44,19.87,36.89,30.63,55.33,10.75,18.44,22.06,36.45,33.92,54.02l171.09,254.7c-34.74,19.99-74.26,30.65-115.43,30.65s-83.83-11.52-119.56-33.08ZM409.5,431.84V82.16c3.95,3.45,7.81,7.04,11.55,10.79,43.82,43.82,67.95,102.08,67.95,164.05s-24.13,120.23-67.95,164.05c-3.74,3.74-7.6,7.33-11.55,10.79Z"/>
  </g>
</svg>